<svg xmlns="http://www.w3.org/2000/svg" viewBox="0 0 64 64">
  <!-- Icon Background -->
  <rect width="64" height="64" rx="16" fill="#A5D6A7" />
  
  <!-- Hole -->
  <ellipse cx="32" cy="54" rx="22" ry="8" fill="#5D4037" />
  
  <!-- Mole Body -->
  <path d="M16 54 C16 26 22 18 32 18 C42 18 48 26 48 54" fill="#8D6E63" stroke="#4E342E" stroke-width="2"/>
  
  <!-- Tummy -->
  <path d="M24 54 Q24 38 32 38 Q40 38 40 54" fill="#D7CCC8" />

  <!-- Eyes -->
  <circle cx="25" cy="32" r="2.5" fill="#212121" />
  <circle cx="39" cy="32" r="2.5" fill="#212121" />
  <circle cx="26" cy="31" r="0.8" fill="white" />
  <circle cx="40" cy="31" r="0.8" fill="white" />
  
  <!-- Nose -->
  <ellipse cx="32" cy="38" rx="4" ry="2.5" fill="#FFAB91" />
  
  <!-- Hard Hat -->
  <path d="M12 26 Q32 8 52 26 L54 29 Q32 22 10 29 Z" fill="#FFB74D" stroke="#E65100" stroke-width="1.5"/>
  <rect x="28" y="14" width="8" height="5" rx="1" fill="#FFF59D" stroke="#E65100" stroke-width="1"/>
</svg>
